<?xml version="1.0" encoding="UTF-8" standalone="no"?>
<svg
   xmlns:dc="http://purl.org/dc/elements/1.1/"
   xmlns:cc="http://creativecommons.org/ns#"
   xmlns:rdf="http://www.w3.org/1999/02/22-rdf-syntax-ns#"
   xmlns:svg="http://www.w3.org/2000/svg"
   xmlns="http://www.w3.org/2000/svg"
   xmlns:sodipodi="http://sodipodi.sourceforge.net/DTD/sodipodi-0.dtd"
   xmlns:inkscape="http://www.inkscape.org/namespaces/inkscape"
   version="1.1"
   id="svg2"
   xml:space="preserve"
   width="754.66705"
   height="106.33026"
   viewBox="0 0 754.66704 106.33026"
   sodipodi:docname="projoules.svg"
   inkscape:export-filename="C:\Users\daanv\Downloads\Logos ProJoules\projoules_positive_email.png"
   inkscape:export-xdpi="65.639999"
   inkscape:export-ydpi="65.639999"
   inkscape:version="1.0.1 (3bc2e813f5, 2020-09-07)"><metadata
     id="metadata8"><rdf:RDF><cc:Work
         rdf:about=""><dc:format>image/svg+xml</dc:format><dc:type
           rdf:resource="http://purl.org/dc/dcmitype/StillImage" /><dc:title></dc:title><dc:title></dc:title></cc:Work></rdf:RDF></metadata><defs
     id="defs6"><clipPath
       clipPathUnits="userSpaceOnUse"
       id="clipPath18"><path
         d="M 0,184.318 H 841.89 V 0 H 0 Z"
         id="path16" /></clipPath></defs><sodipodi:namedview
     pagecolor="#ffffff"
     bordercolor="#666666"
     borderopacity="1"
     objecttolerance="10"
     gridtolerance="10"
     guidetolerance="10"
     inkscape:pageopacity="0"
     inkscape:pageshadow="2"
     inkscape:window-width="1920"
     inkscape:window-height="1001"
     id="namedview4"
     showgrid="false"
     fit-margin-top="0"
     fit-margin-left="0"
     fit-margin-right="0"
     fit-margin-bottom="0"
     inkscape:zoom="1.1990877"
     inkscape:cx="326.05067"
     inkscape:cy="-12.470673"
     inkscape:window-x="-9"
     inkscape:window-y="1064"
     inkscape:window-maximized="1"
     inkscape:current-layer="g10" /><g
     id="g10"
     inkscape:groupmode="layer"
     inkscape:label="PROJOULES-Positive version"
     transform="matrix(1.3333333,0,0,-1.3333333,-184.00013,178.08266)"><g
       id="g12"><g
         id="g14"
         clip-path="url(#clipPath18)"><g
           id="g20"
           transform="translate(204.4502,58.509)"><path
             d="M 0,0 C -2.84,-2.15 -6.3,-3.521 -10.07,-3.79 -6.32,-3.41 -2.87,-2.051 0,0"
             style="fill:#72916d;fill-opacity:1;fill-rule:nonzero;stroke:none"
             id="path22" /></g><g
           id="g24"
           transform="translate(156.3501,54.6585)"><path
             d="m 0,0 c -10.13,0 -18.35,8.221 -18.35,18.351 v 39.21 c 0,10.609 8.6,19.21 19.21,19.21 H 35.99 V 76.7 c 0,-1.95 0.05,-43.189 -0.02,-44.429 C 35.96,32.09 35.95,31.91 35.93,31.73 35.91,31.55 35.89,31.38 35.87,31.21 35.85,31.05 35.83,30.9 35.81,30.75 35.74,30.351 35.66,29.95 35.56,29.57 35.51,29.37 35.45,29.17 35.39,28.971 35.3,28.66 35.19,28.351 35.07,28.061 35.01,27.91 34.95,27.761 34.88,27.61 34.79,27.41 34.7,27.21 34.6,27.011 34.5,26.82 34.4,26.63 34.29,26.44 34.18,26.25 34.06,26.061 33.94,25.88 33.83,25.7 33.7,25.521 33.57,25.34 33.33,24.98 33.05,24.641 32.75,24.32 32.03,23.5 31.18,22.78 30.23,22.16 29.66,21.771 29.06,21.431 28.42,21.141 26.09,20.011 23.32,19.41 20.24,19.41 L 17.77,19.42 10.03,19.3 C 8.96,19.3 7.99,18.91 7.26,18.271 7.16,18.181 7.06,18.08 6.97,17.98 6.86,17.86 6.76,17.74 6.67,17.61 c -0.01,0 0,-0.009 0,-0.009 C 6.45,17.29 6.28,16.95 6.15,16.59 6.12,16.5 6.1,16.4 6.07,16.311 6.06,16.271 6.06,16.23 6.05,16.19 6,15.94 5.97,15.69 5.97,15.431 L 6.32,0.011 Z"
             style="fill:#72916d;fill-opacity:1;fill-rule:nonzero;stroke:none"
             id="path26" /></g><g
           id="g28"
           transform="translate(154.0664,102.759)"><path
             d="M 0,0 C 0,6.384 5.176,11.56 11.56,11.56 17.945,11.56 23.12,6.384 23.12,0 23.12,-6.385 17.945,-11.561 11.56,-11.561 5.176,-11.561 0,-6.385 0,0"
             style="fill:#f6e21c;fill-opacity:1;fill-rule:nonzero;stroke:none"
             id="path30" /></g><g
           id="g32"
           transform="translate(212.6064,113.0496)"><path
             d="m 0,0 v -38.77 c 0,-5.43 -2.3,-10.359 -6.02,-13.91 -0.65,-0.63 -1.34,-1.199 -2.06,-1.73 -0.06,-0.049 -0.12,-0.09 -0.18,-0.13 -2.87,-2.049 -6.32,-3.41 -10.07,-3.79 -0.15,-0.02 -0.31,-0.03 -0.46,-0.04 -0.33,-0.009 -0.66,-0.02 -0.99,-0.02 h -26.05 l -4.21,0.011 -0.35,15.42 c 0,0.259 0.03,0.509 0.08,0.759 0.01,0.04 0.01,0.08 0.02,0.12 0.03,0.09 0.05,0.19 0.08,0.281 0.13,0.359 0.3,0.699 0.52,1.009 0,0 -0.01,0.01 0,0.01 0.09,0.13 0.19,0.25 0.3,0.37 0.09,0.1 0.19,0.201 0.29,0.29 0.73,0.64 1.7,1.031 2.77,1.031 l 7.74,0.119 2.47,-0.01 c 3.08,0 5.85,0.601 8.18,1.73 0.64,0.291 1.24,0.63 1.81,1.02 0.95,0.62 1.8,1.34 2.52,2.16 0.3,0.32 0.58,0.66 0.82,1.021 0.14,0.17 0.26,0.349 0.37,0.54 0.12,0.179 0.24,0.369 0.35,0.559 0.12,0.18 0.22,0.37 0.31,0.571 0.11,0.199 0.2,0.399 0.28,0.599 0.07,0.151 0.14,0.3 0.19,0.45 0.12,0.29 0.23,0.6 0.32,0.911 0.06,0.189 0.12,0.389 0.17,0.599 0.1,0.38 0.18,0.78 0.25,1.18 0.02,0.15 0.05,0.301 0.06,0.46 0.03,0.171 0.05,0.341 0.06,0.52 0.02,0.18 0.03,0.361 0.04,0.54 0.07,1.241 0.02,42.48 0.02,44.43 v 0.07 h 2.02 c 0.58,0 1.15,-0.03 1.71,-0.08 0.17,-0.01 0.34,-0.04 0.52,-0.06 C -7.04,17.14 0,9.39 0,0"
             style="fill:#a3cd8a;fill-opacity:1;fill-rule:nonzero;stroke:none"
             id="path34" /></g><g
           id="g36"
           transform="translate(162.5,71.2483)"><path
             d="M 0,0 C 0.12,0.36 0.29,0.7 0.52,1.011 0.3,0.7 0.13,0.36 0,0"
             style="fill:#a3cd8a;fill-opacity:1;fill-rule:nonzero;stroke:none"
             id="path38" /></g><g
           id="g40"
           transform="translate(176.5898,74.0891)"><path
             d="M 0,0 C 3.07,0 5.85,0.6 8.18,1.71 5.85,0.58 3.08,-0.021 0,-0.021 l -2.47,0.01 -7.74,-0.12 c -1.07,0 -2.04,-0.39 -2.77,-1.029 0.72,0.66 1.7,1.05 2.77,1.05 l 7.74,0.12 z"
             style="fill:#a3cd8a;fill-opacity:1;fill-rule:nonzero;stroke:none"
             id="path42" /></g><g
           id="g44"
           transform="translate(184.77,75.7991)"><path
             d="M 0,0 C 0.64,0.31 1.24,0.649 1.81,1.02 1.24,0.63 0.64,0.29 0,0"
             style="fill:#a3cd8a;fill-opacity:1;fill-rule:nonzero;stroke:none"
             id="path46" /></g><g
           id="g48"
           transform="translate(186.5801,76.8186)"><path
             d="M 0,0 C 0.94,0.63 1.79,1.351 2.52,2.16 1.8,1.34 0.95,0.62 0,0"
             style="fill:#a3cd8a;fill-opacity:1;fill-rule:nonzero;stroke:none"
             id="path50" /></g><g
           id="g52"
           transform="translate(189.1001,78.9788)"><path
             d="M 0,0 C 0.29,0.33 0.57,0.67 0.82,1.02 0.58,0.66 0.3,0.32 0,0"
             style="fill:#a3cd8a;fill-opacity:1;fill-rule:nonzero;stroke:none"
             id="path54" /></g><g
           id="g56"
           transform="translate(192.9302,54.6585)"><path
             d="M 0,0 C 0.33,0 0.66,0.011 0.99,0.021 0.41,-0.04 -0.19,-0.06 -0.79,-0.06 L -26.05,0 Z"
             style="fill:#a3cd8a;fill-opacity:1;fill-rule:nonzero;stroke:none"
             id="path58" /></g><g
           id="g60"
           transform="translate(260.8228,92.8396)"><path
             d="m 0,0 h 10.725 c 2.619,0 4.902,0.326 6.849,0.981 1.947,0.655 3.558,1.593 4.832,2.814 1.274,1.222 2.23,2.708 2.867,4.461 0.637,1.752 0.956,3.707 0.956,5.867 0,2.052 -0.319,3.911 -0.956,5.574 -0.637,1.664 -1.593,3.08 -2.867,4.249 -1.274,1.167 -2.885,2.061 -4.832,2.681 -1.947,0.619 -4.23,0.929 -6.849,0.929 H 0 Z M 0,-11.15 V -38.176 H -14.283 V 38.6 h 25.008 c 5.132,0 9.574,-0.603 13.327,-1.806 3.751,-1.204 6.849,-2.885 9.291,-5.044 2.443,-2.16 4.248,-4.744 5.416,-7.751 1.168,-3.01 1.752,-6.302 1.752,-9.876 0,-3.717 -0.619,-7.124 -1.858,-10.222 -1.239,-3.097 -3.098,-5.76 -5.575,-7.99 -2.478,-2.23 -5.575,-3.965 -9.291,-5.203 -3.718,-1.24 -8.071,-1.858 -13.062,-1.858 z"
             style="fill:#72916d;fill-opacity:1;fill-rule:nonzero;stroke:none"
             id="path62" /></g><g
           id="g64"
           transform="translate(311.6875,54.6633)"><path
             d="m 0,0 v 54.476 h 7.699 c 1.345,0 2.283,-0.248 2.814,-0.744 0.53,-0.496 0.884,-1.345 1.062,-2.548 L 12.371,44.6 c 1.946,3.362 4.23,6.017 6.849,7.964 2.619,1.946 5.557,2.921 8.814,2.921 2.69,0 4.92,-0.62 6.69,-1.859 l -1.699,-9.822 c -0.107,-0.637 -0.337,-1.089 -0.69,-1.354 -0.354,-0.265 -0.833,-0.399 -1.434,-0.399 -0.53,0 -1.256,0.125 -2.176,0.372 -0.922,0.247 -2.142,0.371 -3.664,0.371 -2.726,0 -5.062,-0.752 -7.008,-2.256 -1.948,-1.504 -3.594,-3.708 -4.938,-6.61 L 13.115,0 Z"
             style="fill:#72916d;fill-opacity:1;fill-rule:nonzero;stroke:none"
             id="path66" /></g><g
           id="g68"
           transform="translate(378.3203,63.9553)"><path
             d="m 0,0 c 4.531,0 7.885,1.521 10.062,4.566 2.177,3.044 3.265,7.503 3.265,13.38 0,5.875 -1.088,10.354 -3.265,13.433 C 7.885,34.458 4.531,35.998 0,35.998 c -4.601,0 -8,-1.548 -10.194,-4.646 -2.195,-3.097 -3.291,-7.565 -3.291,-13.406 0,-5.841 1.096,-10.292 3.291,-13.353 C -8,1.53 -4.601,0 0,0 m 0,46.033 c 4.07,0 7.76,-0.655 11.071,-1.965 3.309,-1.309 6.132,-3.167 8.468,-5.574 2.336,-2.407 4.142,-5.346 5.416,-8.814 1.274,-3.469 1.911,-7.345 1.911,-11.628 0,-4.319 -0.637,-8.212 -1.911,-11.68 -1.274,-3.47 -3.08,-6.425 -5.416,-8.868 C 17.203,-4.937 14.38,-6.814 11.071,-8.123 7.76,-9.432 4.07,-10.088 0,-10.088 c -4.071,0 -7.77,0.656 -11.096,1.965 -3.328,1.309 -6.169,3.186 -8.522,5.627 -2.355,2.443 -4.177,5.398 -5.469,8.868 -1.292,3.468 -1.938,7.361 -1.938,11.68 0,4.283 0.646,8.159 1.938,11.628 1.292,3.468 3.114,6.407 5.469,8.814 2.353,2.407 5.194,4.265 8.522,5.574 3.326,1.31 7.025,1.965 11.096,1.965"
             style="fill:#72916d;fill-opacity:1;fill-rule:nonzero;stroke:none"
             id="path70" /></g><g
           id="g72"
           transform="translate(447.0771,81.9544)"><path
             d="m 0,0 c 0,-4.318 -0.53,-8.212 -1.592,-11.68 -1.062,-3.47 -2.646,-6.424 -4.753,-8.868 -2.105,-2.442 -4.734,-4.318 -7.884,-5.627 -3.151,-1.309 -6.814,-1.965 -10.991,-1.965 -1.91,0 -3.788,0.116 -5.627,0.345 -1.841,0.231 -3.77,0.592 -5.788,1.089 l 0.743,8.495 c 0.071,0.777 0.363,1.407 0.877,1.885 0.513,0.477 1.265,0.717 2.256,0.717 0.602,0 1.389,-0.124 2.363,-0.372 0.973,-0.248 2.204,-0.373 3.69,-0.373 2.018,0 3.805,0.293 5.362,0.877 1.558,0.584 2.859,1.513 3.904,2.788 1.043,1.274 1.831,2.928 2.362,4.963 0.531,2.037 0.796,4.504 0.796,7.408 V 49.485 H 0 Z"
             style="fill:#a3cd8a;fill-opacity:1;fill-rule:nonzero;stroke:none"
             id="path74" /></g><g
           id="g76"
           transform="translate(485.0928,63.9553)"><path
             d="m 0,0 c 4.531,0 7.885,1.521 10.063,4.566 2.176,3.044 3.264,7.503 3.264,13.38 0,5.875 -1.088,10.354 -3.264,13.433 C 7.885,34.458 4.531,35.998 0,35.998 c -4.601,0 -8,-1.548 -10.194,-4.646 -2.195,-3.097 -3.291,-7.565 -3.291,-13.406 0,-5.841 1.096,-10.292 3.291,-13.353 C -8,1.53 -4.601,0 0,0 m 0,46.033 c 4.07,0 7.761,-0.655 11.071,-1.965 3.309,-1.309 6.132,-3.167 8.468,-5.574 2.337,-2.407 4.142,-5.346 5.416,-8.814 1.274,-3.469 1.911,-7.345 1.911,-11.628 0,-4.319 -0.637,-8.212 -1.911,-11.68 C 23.681,2.902 21.876,-0.053 19.539,-2.496 17.203,-4.937 14.38,-6.814 11.071,-8.123 7.761,-9.432 4.07,-10.088 0,-10.088 c -4.07,0 -7.77,0.656 -11.096,1.965 -3.328,1.309 -6.169,3.186 -8.522,5.627 -2.355,2.443 -4.177,5.398 -5.469,8.868 -1.292,3.468 -1.937,7.361 -1.937,11.68 0,4.283 0.645,8.159 1.937,11.628 1.292,3.468 3.114,6.407 5.469,8.814 2.353,2.407 5.194,4.265 8.522,5.574 3.326,1.31 7.026,1.965 11.096,1.965"
             style="fill:#a3cd8a;fill-opacity:1;fill-rule:nonzero;stroke:none"
             id="path78" /></g><g
           id="g80"
           transform="translate(534.2051,109.1389)"><path
             d="m 0,0 v -34.617 c 0,-3.328 0.771,-5.904 2.31,-7.727 1.54,-1.822 3.849,-2.733 6.929,-2.733 2.265,0 4.389,0.504 6.371,1.513 1.982,1.008 3.858,2.397 5.628,4.168 V 0 h 13.115 v -54.476 h -8.017 c -1.699,0 -2.815,0.797 -3.345,2.391 l -0.903,4.353 c -1.133,-1.133 -2.302,-2.168 -3.505,-3.107 -1.203,-0.937 -2.486,-1.734 -3.849,-2.389 -1.363,-0.655 -2.832,-1.168 -4.407,-1.539 -1.575,-0.372 -3.265,-0.557 -5.07,-0.557 -2.974,0 -5.602,0.503 -7.885,1.512 -2.283,1.01 -4.203,2.434 -5.761,4.274 -1.557,1.841 -2.734,4.027 -3.531,6.558 -0.796,2.53 -1.194,5.318 -1.194,8.363 V 0 Z"
             style="fill:#a3cd8a;fill-opacity:1;fill-rule:nonzero;stroke:none"
             id="path82" /></g><path
           d="m 596.538,54.663 h -13.114 v 78.899 h 13.114 z"
           style="fill:#a3cd8a;fill-opacity:1;fill-rule:nonzero;stroke:none"
           id="path84" /><g
           id="g86"
           transform="translate(634.1289,100.5906)"><path
             d="m 0,0 c -3.823,0 -6.814,-1.08 -8.973,-3.239 -2.16,-2.159 -3.54,-5.22 -4.141,-9.185 h 24.635 c 0,1.699 -0.23,3.3 -0.69,4.805 -0.46,1.504 -1.168,2.822 -2.123,3.956 -0.956,1.132 -2.159,2.026 -3.61,2.682 C 3.646,-0.327 1.946,0 0,0 m -0.266,9.397 c 3.434,0 6.592,-0.548 9.479,-1.645 2.884,-1.098 5.37,-2.699 7.459,-4.805 2.088,-2.106 3.717,-4.69 4.885,-7.752 1.168,-3.062 1.752,-6.557 1.752,-10.487 0,-0.99 -0.045,-1.813 -0.132,-2.468 -0.089,-0.655 -0.249,-1.167 -0.479,-1.54 -0.23,-0.37 -0.54,-0.637 -0.929,-0.796 -0.389,-0.159 -0.885,-0.238 -1.487,-0.238 H -13.38 c 0.39,-5.594 1.894,-9.7 4.514,-12.319 2.618,-2.62 6.087,-3.93 10.406,-3.93 2.124,0 3.955,0.249 5.495,0.744 1.54,0.496 2.885,1.044 4.035,1.646 1.151,0.602 2.159,1.151 3.027,1.646 0.867,0.496 1.708,0.743 2.522,0.743 0.53,0 0.99,-0.106 1.38,-0.318 0.39,-0.213 0.726,-0.514 1.009,-0.903 l 3.823,-4.778 c -1.451,-1.699 -3.08,-3.124 -4.885,-4.275 -1.805,-1.15 -3.69,-2.07 -5.654,-2.76 -1.965,-0.69 -3.965,-1.176 -6,-1.461 -2.036,-0.283 -4.009,-0.424 -5.92,-0.424 -3.788,0 -7.309,0.629 -10.566,1.885 -3.257,1.256 -6.088,3.115 -8.495,5.575 -2.408,2.46 -4.301,5.504 -5.681,9.133 -1.381,3.627 -2.071,7.831 -2.071,12.609 0,3.716 0.601,7.212 1.805,10.487 1.203,3.273 2.929,6.122 5.177,8.547 2.247,2.424 4.991,4.345 8.23,5.761 3.239,1.415 6.893,2.123 10.963,2.123"
             style="fill:#a3cd8a;fill-opacity:1;fill-rule:nonzero;stroke:none"
             id="path88" /></g><g
           id="g90"
           transform="translate(700.4434,98.5203)"><path
             d="m 0,0 c -0.354,-0.567 -0.727,-0.965 -1.115,-1.195 -0.391,-0.231 -0.886,-0.345 -1.487,-0.345 -0.637,0 -1.319,0.177 -2.044,0.532 -0.726,0.352 -1.567,0.751 -2.522,1.193 -0.956,0.443 -2.044,0.841 -3.266,1.195 -1.221,0.354 -2.664,0.531 -4.327,0.531 -2.585,0 -4.619,-0.549 -6.105,-1.646 -1.488,-1.097 -2.231,-2.531 -2.231,-4.3 0,-1.169 0.38,-2.15 1.142,-2.947 0.761,-0.797 1.769,-1.496 3.026,-2.098 1.256,-0.601 2.682,-1.14 4.274,-1.619 1.593,-0.478 3.22,-1 4.884,-1.565 1.665,-0.568 3.292,-1.214 4.886,-1.939 1.593,-0.725 3.017,-1.646 4.274,-2.76 1.256,-1.116 2.264,-2.453 3.026,-4.01 0.761,-1.558 1.142,-3.434 1.142,-5.628 0,-2.62 -0.478,-5.035 -1.434,-7.247 -0.955,-2.212 -2.354,-4.124 -4.194,-5.735 -1.841,-1.611 -4.116,-2.867 -6.823,-3.769 -2.708,-0.903 -5.814,-1.354 -9.318,-1.354 -1.877,0 -3.708,0.168 -5.495,0.503 -1.788,0.338 -3.504,0.806 -5.15,1.409 -1.646,0.601 -3.169,1.309 -4.567,2.124 -1.398,0.813 -2.628,1.698 -3.689,2.654 l 3.026,4.99 c 0.389,0.602 0.849,1.063 1.38,1.381 0.531,0.319 1.203,0.478 2.018,0.478 0.814,0 1.584,-0.23 2.309,-0.69 0.726,-0.461 1.567,-0.955 2.523,-1.486 0.956,-0.532 2.078,-1.029 3.371,-1.487 1.292,-0.461 2.928,-0.69 4.911,-0.69 1.557,0 2.893,0.186 4.009,0.557 1.115,0.372 2.035,0.858 2.76,1.461 0.726,0.601 1.256,1.3 1.594,2.096 0.335,0.797 0.504,1.619 0.504,2.469 0,1.274 -0.381,2.318 -1.142,3.133 -0.761,0.814 -1.77,1.521 -3.026,2.123 -1.257,0.601 -2.69,1.142 -4.301,1.62 -1.611,0.478 -3.257,0.999 -4.937,1.566 -1.682,0.566 -3.328,1.23 -4.939,1.991 -1.61,0.76 -3.045,1.726 -4.301,2.894 -1.256,1.168 -2.265,2.601 -3.026,4.301 -0.761,1.699 -1.141,3.751 -1.141,6.158 0,2.231 0.442,4.355 1.328,6.372 0.884,2.018 2.184,3.779 3.902,5.283 1.717,1.504 3.857,2.708 6.425,3.61 2.565,0.904 5.53,1.354 8.892,1.354 3.752,0 7.168,-0.619 10.247,-1.858 3.081,-1.239 5.647,-2.867 7.7,-4.885 z"
             style="fill:#a3cd8a;fill-opacity:1;fill-rule:nonzero;stroke:none"
             id="path92" /></g></g></g></g></svg>
