<svg id="Isolation_Mode" data-name="Isolation Mode" xmlns="http://www.w3.org/2000/svg" xmlns:xlink="http://www.w3.org/1999/xlink" viewBox="0 0 1749.8 374.18"><defs><style>.cls-1{fill:#1b0e31;}.cls-2{fill:url(#linear-gradient);}.cls-3{fill:url(#linear-gradient-2);}</style><linearGradient id="linear-gradient" x1="165.46" y1="233.41" x2="165.46" y2="273.12" gradientUnits="userSpaceOnUse"><stop offset="0" stop-color="#f30096"/><stop offset="0.14" stop-color="#d10286"/><stop offset="0.56" stop-color="#700859"/><stop offset="0.86" stop-color="#330c3c"/><stop offset="1" stop-color="#1b0e31"/></linearGradient><linearGradient id="linear-gradient-2" x1="139.41" y1="217.14" x2="139.41" y2="177.43" gradientUnits="userSpaceOnUse"><stop offset="0" stop-color="#f30096"/><stop offset="0.2" stop-color="#bd047d"/><stop offset="0.49" stop-color="#78085c"/><stop offset="0.72" stop-color="#460b45"/><stop offset="0.9" stop-color="#270d36"/><stop offset="1" stop-color="#1b0e31"/></linearGradient></defs><title>logo svg</title><path class="cls-1" d="M417.37,132.83,255.16,484.72q-2.11,4.66-8,4.66t-8.06-4.66L154.34,300.89q-2.13-5.1,0-8.48c1.42-2.26,3.82-3.4,7.21-3.4H201a21,21,0,0,1,11,3.4,18.24,18.24,0,0,1,7.63,8.48l22,47.3c1.41,3.11,3.24,4.66,5.51,4.66s4.09-1.55,5.51-4.66l99-215.36a18.13,18.13,0,0,1,7.63-8.48,19,19,0,0,1,10.67-2.9h39.43c3.67,0,6.57.64,8,2.9S418.78,129.43,417.37,132.83Z" transform="translate(-76.31 -121.45)"/><path class="cls-2" d="M201.44,261.25l-1.3-3.05-5.36-12.92a18.36,18.36,0,0,0-7.64-8.48,20.88,20.88,0,0,0-11-3.39H136.69c-3.39,0-5.8,1.13-7.21,3.39s-1.42,5.09,0,8.48l5.37,12.92h0l1.27,3.05a18.28,18.28,0,0,0,7.63,8.48,20.94,20.94,0,0,0,11,3.39h39.43c3.39,0,5.8-1.13,7.21-3.39S202.86,264.64,201.44,261.25Z" transform="translate(-76.31 -121.45)"/><path class="cls-3" d="M175.39,205.27l-1.3-3.05-5.37-12.92a18.28,18.28,0,0,0-7.63-8.48,20.88,20.88,0,0,0-11-3.39H110.64c-3.39,0-5.8,1.13-7.21,3.39s-1.42,5.09,0,8.48l5.37,12.92h0l1.27,3.05a18.28,18.28,0,0,0,7.63,8.48,20.94,20.94,0,0,0,11,3.39h39.43q5.08,0,7.21-3.39T175.39,205.27Z" transform="translate(-76.31 -121.45)"/><path class="cls-1" d="M149.34,149.29l-1.3-3-5.37-12.92a18.28,18.28,0,0,0-7.63-8.48,20.88,20.88,0,0,0-11-3.39H84.59c-3.39,0-5.8,1.13-7.21,3.39s-1.42,5.09,0,8.48l5.37,12.92h0l1.27,3a18.28,18.28,0,0,0,7.63,8.48,20.94,20.94,0,0,0,11,3.39h39.43q5.09,0,7.21-3.39T149.34,149.29Z" transform="translate(-76.31 -121.45)"/><path class="cls-1" d="M357.77,478.67,504.91,184.83a9.61,9.61,0,0,1,17,0L669,478.67c1.69,3.11,1.91,5.8.63,8.06s-3.74,3.39-7.42,3.39H623.63a20.89,20.89,0,0,1-11-3.39,18.23,18.23,0,0,1-7.63-8.48l-12.72-25.44a22.52,22.52,0,0,0-7.84-8.06,19.87,19.87,0,0,0-10.81-3.39H453.18a20.89,20.89,0,0,0-11,3.39,18.28,18.28,0,0,0-7.63,8.48l-12.3,25a21.37,21.37,0,0,1-7.84,8.48,19.87,19.87,0,0,1-10.81,3.39H365q-5.5,0-7.42-3.39T357.77,478.67Zm124.24-89h62.75c3.67,0,6.15-1.2,7.42-3.61s1.2-5.15-.21-8.26l-33.07-70c-1.42-3.4-3.25-5.09-5.51-5.09s-4.1,1.69-5.52,5.09l-33.49,70q-2.13,5.08,0,8.48T482,389.63Z" transform="translate(-76.31 -121.45)"/><path class="cls-1" d="M769.91,486.3q-25.44-9.75-42-26.29a111.08,111.08,0,0,1-27.13-41.12q-9.34-23.75-9.33-53.85V193.31a12.72,12.72,0,0,1,3.81-9.33,12.24,12.24,0,0,1,8.91-3.81h33.49a13,13,0,0,1,13.15,13.14v171.3q0,23.33,7.63,38.59a77.31,77.31,0,0,0,18.66,24.16q11.86,9.34,24.16,12.3c4.52,1.14,8.7,2,12.51,2.55a73.27,73.27,0,0,0,10.81.84q9.33,0,22.9-3.39a56.13,56.13,0,0,0,24.17-12.3q11.45-8.89,19.08-24.16t7.63-38.59V193.31a13,13,0,0,1,13.15-13.14H944.6a13,13,0,0,1,13.14,13.14V365a164.13,164.13,0,0,1-2.33,28.19,141.27,141.27,0,0,1-7,25.66A118.83,118.83,0,0,1,921.7,460q-17,16.55-42,26.29-24.18,9.33-55.13,9.33T769.91,486.3Z" transform="translate(-76.31 -121.45)"/><path class="cls-1" d="M1249,450.69V477a13,13,0,0,1-13.14,13.14H1038.73A13,13,0,0,1,1025.58,477V192.89a13,13,0,0,1,13.15-13.15h33.07a13,13,0,0,1,13.14,13.15V424.4a13,13,0,0,0,13.15,13.14h137.8A13,13,0,0,1,1249,450.69Z" transform="translate(-76.31 -121.45)"/><path class="cls-1" d="M1364.78,486.3q-25.44-9.75-42-26.29a111.1,111.1,0,0,1-27.14-41.12q-9.33-23.75-9.33-53.85V193.31a12.69,12.69,0,0,1,3.82-9.33,12.2,12.2,0,0,1,8.9-3.81h33.5a13,13,0,0,1,13.14,13.14v171.3q0,23.33,7.63,38.59A77.46,77.46,0,0,0,1372,427.36q11.87,9.34,24.17,12.3c4.52,1.14,8.69,2,12.51,2.55a73.17,73.17,0,0,0,10.81.84q9.32,0,22.9-3.39a56.19,56.19,0,0,0,24.17-12.3q11.45-8.89,19.08-24.16t7.63-38.59V193.31a13,13,0,0,1,13.14-13.14h33.08a13,13,0,0,1,13.14,13.14V365a164.13,164.13,0,0,1-2.33,28.19,140.49,140.49,0,0,1-7,25.66A119,119,0,0,1,1516.58,460q-17,16.55-42,26.29-24.16,9.33-55.12,9.33T1364.78,486.3Z" transform="translate(-76.31 -121.45)"/><path class="cls-1" d="M1813,232.32h-62.32a13,13,0,0,0-13.15,13.15V477a13,13,0,0,1-13.14,13.14h-33.07A13,13,0,0,1,1678.13,477V245.47A13,13,0,0,0,1665,232.32h-62.76a13,13,0,0,1-13.14-13.14V192.89a13,13,0,0,1,13.14-13.15H1813a13,13,0,0,1,13.15,13.15v26.29A13,13,0,0,1,1813,232.32Z" transform="translate(-76.31 -121.45)"/></svg>